<?xml version="1.0" encoding="UTF-8" standalone="no"?><svg xmlns="http://www.w3.org/2000/svg" xmlns:xlink="http://www.w3.org/1999/xlink" contentScriptType="application/ecmascript" contentStyleType="text/css" height="387px" preserveAspectRatio="none" style="width:662px;height:387px;" version="1.1" viewBox="0 0 662 387" width="662px" zoomAndPan="magnify"><defs><filter height="300%" id="f1w9tr77more0z" width="300%" x="-1" y="-1"><feGaussianBlur result="blurOut" stdDeviation="2.0"/><feColorMatrix in="blurOut" result="blurOut2" type="matrix" values="0 0 0 0 0 0 0 0 0 0 0 0 0 0 0 0 0 0 .4 0"/><feOffset dx="4.0" dy="4.0" in="blurOut2" result="blurOut3"/><feBlend in="SourceGraphic" in2="blurOut3" mode="normal"/></filter></defs><g><!--cluster GitHub Enterprise--><path d="M165.25,31 C165.25,28 167.25,26 170.25,26 C173.25,26 175.25,28 175.25,31 C175.25,28 177.25,26 180.25,26 C183.25,26 185.25,28 185.25,31 C185.25,28 187.25,26 190.25,26 C193.25,26 195.25,28 195.25,31 C195.25,28 197.25,26 200.25,26 C203.25,26 205.25,28 205.25,31 C205.25,28 207.25,26 210.25,26 C213.25,26 215.25,28 215.25,31 C215.25,28 217.25,26 220.25,26 C223.25,26 225.25,28 225.25,31 C225.25,28 227.25,26 230.25,26 C233.25,26 235.25,28 235.25,31 C235.25,28 237.25,26 240.25,26 C243.25,26 245.25,28 245.25,31 C245.25,28 247.25,26 250.25,26 C253.25,26 255.25,28 255.25,31 C255.25,28 257.25,26 260.25,26 C263.25,26 265.25,28 265.25,31 C265.25,28 267.25,26 270.25,26 C273.25,26 275.25,28 275.25,31 C275.25,28 277.25,26 280.25,26 C283.25,26 285.25,28 285.25,31 C285.25,28 287.25,26 290.25,26 C293.25,26 295.25,28 295.25,31 C295.25,28 297.25,26 300.25,26 C303.25,26 305.25,28 305.25,31 C305.25,28 307.25,26 310.25,26 C313.25,26 315.25,28 315.25,31 C315.25,28 317.25,26 320.25,26 C323.25,26 325.25,28 325.25,31 C325.25,28 327.25,26 330.25,26 C333.25,26 335.25,28 335.25,31 C335.25,28 337.25,26 340.25,26 C343.25,26 345.25,28 345.25,31 C345.25,28 347.25,26 350.25,26 C353.25,26 355.25,28 355.25,31 C355.25,28 357.25,26 360.25,26 C363.25,26 365.25,28 365.25,31 C365.25,28 367.25,26 370.25,26 C373.25,26 375.25,28 375.25,31 C375.25,28 377.25,26 380.25,26 C383.25,26 385.25,28 385.25,31 C385.25,28 387.25,26 390.25,26 C393.25,26 395.25,28 395.25,31 C395.25,28 397.25,26 400.25,26 C403.25,26 405.25,28 405.25,31 C405.25,28 407.25,26 410.25,26 C413.25,26 415.25,28 415.25,31 C415.25,28 417.25,26 420.25,26 C423.25,26 425.25,28 425.25,31 C425.25,28 427.25,26 430.25,26 C433.25,26 435.25,28 435.25,31 C435.25,28 437.25,26 440.25,26 C443.25,26 445.25,28 445.25,31 C445.25,28 447.25,26 450.25,26 C453.25,26 455.25,28 455.25,31 C455.25,28 457.25,26 460.25,26 C463.25,26 465.25,28 465.25,31 C465.25,28 467.25,26 470.25,26 C473.25,26 475.25,28 475.25,31 C475.25,28 477.25,26 480.25,26 C483.25,26 485.25,28 485.25,31 C485.25,28 487.25,26 490.25,26 C493.25,26 495.25,28 495.25,31 C495.25,28 497.25,26 500.25,26 C503.25,26 505.25,28 505.25,31 C505.25,28 507.25,26 510.25,26 C513.25,26 515.25,28 515.25,31 C515.25,28 517.25,26 520.25,26 C523.25,26 525.25,28 525.25,31 C525.25,28 527.25,26 530.25,26 C533.25,26 535.25,28 535.25,31 C535.25,28 537.25,26 540.25,26 C543.25,26 545.25,28 545.25,31 C545.25,28 547.25,26 550.25,26 C553.25,26 555.25,28 555.25,31 C555.25,28 557.25,26 560.25,26 C563.25,26 565.25,28 565.25,31 C565.25,28 567.25,26 570.25,26 C573.25,26 575.25,28 575.25,31 C575.25,28 577.25,26 580.25,26 C583.25,26 585.25,28 585.25,31 C585.25,28 587.25,26 590.25,26 C593.25,26 595.25,28 595.25,31 C595.25,28 597.25,26 600.25,26 C603.25,26 605.25,28 605.25,31 C605.25,28 607.25,26 610.25,26 C613.25,26 615.25,28 615.25,31 C615.25,28 617.25,26 620.25,26 C623.25,26 625.25,28 625.25,31 C625.25,28 627.25,26 630.25,26 C633.25,26 635.25,28 635.25,31 C635.25,28 637.25,26 640.25,26 C643.25,26 645.25,28 645.25,31 C648.25,31 650.25,33 650.25,36 C650.25,39 648.25,41 645.25,41 C648.25,41 650.25,43 650.25,46 C650.25,49 648.25,51 645.25,51 C648.25,51 650.25,53 650.25,56 C650.25,59 648.25,61 645.25,61 C648.25,61 650.25,63 650.25,66 C650.25,69 648.25,71 645.25,71 C648.25,71 650.25,73 650.25,76 C650.25,79 648.25,81 645.25,81 C648.25,81 650.25,83 650.25,86 C650.25,89 648.25,91 645.25,91 C648.25,91 650.25,93 650.25,96 C650.25,99 648.25,101 645.25,101 C648.25,101 650.25,103 650.25,106 C650.25,109 648.25,111 645.25,111 C648.25,111 650.25,113 650.25,116 C650.25,119 648.25,121 645.25,121 C648.25,121 650.25,123 650.25,126 C650.25,129 648.25,131 645.25,131 C648.25,131 650.25,133 650.25,136 C650.25,139 648.25,141 645.25,141 C648.25,141 650.25,143 650.25,146 C650.25,149 648.25,151 645.25,151 C648.25,151 650.25,153 650.25,156 C650.25,159 648.25,161 645.25,161 C648.25,161 650.25,163 650.25,166 C650.25,169 648.25,171 645.25,171 C648.25,171 650.25,173 650.25,176 C650.25,179 648.25,181 645.25,181 C648.25,181 650.25,183 650.25,186 C650.25,189 648.25,191 645.25,191 C648.25,191 650.25,193 650.25,196 C650.25,199 648.25,201 645.25,201 C648.25,201 650.25,203 650.25,206 C650.25,209 648.25,211 645.25,211 C648.25,211 650.25,213 650.25,216 C650.25,219 648.25,221 645.25,221 C648.25,221 650.25,223 650.25,226 C650.25,229 648.25,231 645.25,231 C648.25,231 650.25,233 650.25,236 C650.25,239 648.25,241 645.25,241 C645.25,244 642.25,246 640.25,246 C637.25,246 635.25,244 635.25,241 C635.25,244 632.25,246 630.25,246 C627.25,246 625.25,244 625.25,241 C625.25,244 622.25,246 620.25,246 C617.25,246 615.25,244 615.25,241 C615.25,244 612.25,246 610.25,246 C607.25,246 605.25,244 605.25,241 C605.25,244 602.25,246 600.25,246 C597.25,246 595.25,244 595.25,241 C595.25,244 592.25,246 590.25,246 C587.25,246 585.25,244 585.25,241 C585.25,244 582.25,246 580.25,246 C577.25,246 575.25,244 575.25,241 C575.25,244 572.25,246 570.25,246 C567.25,246 565.25,244 565.25,241 C565.25,244 562.25,246 560.25,246 C557.25,246 555.25,244 555.25,241 C555.25,244 552.25,246 550.25,246 C547.25,246 545.25,244 545.25,241 C545.25,244 542.25,246 540.25,246 C537.25,246 535.25,244 535.25,241 C535.25,244 532.25,246 530.25,246 C527.25,246 525.25,244 525.25,241 C525.25,244 522.25,246 520.25,246 C517.25,246 515.25,244 515.25,241 C515.25,244 512.25,246 510.25,246 C507.25,246 505.25,244 505.25,241 C505.25,244 502.25,246 500.25,246 C497.25,246 495.25,244 495.25,241 C495.25,244 492.25,246 490.25,246 C487.25,246 485.25,244 485.25,241 C485.25,244 482.25,246 480.25,246 C477.25,246 475.25,244 475.25,241 C475.25,244 472.25,246 470.25,246 C467.25,246 465.25,244 465.25,241 C465.25,244 462.25,246 460.25,246 C457.25,246 455.25,244 455.25,241 C455.25,244 452.25,246 450.25,246 C447.25,246 445.25,244 445.25,241 C445.25,244 442.25,246 440.25,246 C437.25,246 435.25,244 435.25,241 C435.25,244 432.25,246 430.25,246 C427.25,246 425.25,244 425.25,241 C425.25,244 422.25,246 420.25,246 C417.25,246 415.25,244 415.25,241 C415.25,244 412.25,246 410.25,246 C407.25,246 405.25,244 405.25,241 C405.25,244 402.25,246 400.25,246 C397.25,246 395.25,244 395.25,241 C395.25,244 392.25,246 390.25,246 C387.25,246 385.25,244 385.25,241 C385.25,244 382.25,246 380.25,246 C377.25,246 375.25,244 375.25,241 C375.25,244 372.25,246 370.25,246 C367.25,246 365.25,244 365.25,241 C365.25,244 362.25,246 360.25,246 C357.25,246 355.25,244 355.25,241 C355.25,244 352.25,246 350.25,246 C347.25,246 345.25,244 345.25,241 C345.25,244 342.25,246 340.25,246 C337.25,246 335.25,244 335.25,241 C335.25,244 332.25,246 330.25,246 C327.25,246 325.25,244 325.25,241 C325.25,244 322.25,246 320.25,246 C317.25,246 315.25,244 315.25,241 C315.25,244 312.25,246 310.25,246 C307.25,246 305.25,244 305.25,241 C305.25,244 302.25,246 300.25,246 C297.25,246 295.25,244 295.25,241 C295.25,244 292.25,246 290.25,246 C287.25,246 285.25,244 285.25,241 C285.25,244 282.25,246 280.25,246 C277.25,246 275.25,244 275.25,241 C275.25,244 272.25,246 270.25,246 C267.25,246 265.25,244 265.25,241 C265.25,244 262.25,246 260.25,246 C257.25,246 255.25,244 255.25,241 C255.25,244 252.25,246 250.25,246 C247.25,246 245.25,244 245.25,241 C245.25,244 242.25,246 240.25,246 C237.25,246 235.25,244 235.25,241 C235.25,244 232.25,246 230.25,246 C227.25,246 225.25,244 225.25,241 C225.25,244 222.25,246 220.25,246 C217.25,246 215.25,244 215.25,241 C215.25,244 212.25,246 210.25,246 C207.25,246 205.25,244 205.25,241 C205.25,244 202.25,246 200.25,246 C197.25,246 195.25,244 195.25,241 C195.25,244 192.25,246 190.25,246 C187.25,246 185.25,244 185.25,241 C185.25,244 182.25,246 180.25,246 C177.25,246 175.25,244 175.25,241 C175.25,244 172.25,246 170.25,246 C167.25,246 165.25,244 165.25,241 C162.25,241 160.25,239 160.25,236 C160.25,233 162.25,231 165.25,231 C162.25,231 160.25,229 160.25,226 C160.25,223 162.25,221 165.25,221 C162.25,221 160.25,219 160.25,216 C160.25,213 162.25,211 165.25,211 C162.25,211 160.25,209 160.25,206 C160.25,203 162.25,201 165.25,201 C162.25,201 160.25,199 160.25,196 C160.25,193 162.25,191 165.25,191 C162.25,191 160.25,189 160.25,186 C160.25,183 162.25,181 165.25,181 C162.25,181 160.25,179 160.25,176 C160.25,173 162.25,171 165.25,171 C162.25,171 160.25,169 160.25,166 C160.25,163 162.25,161 165.25,161 C162.25,161 160.25,159 160.25,156 C160.25,153 162.25,151 165.25,151 C162.25,151 160.25,149 160.25,146 C160.25,143 162.25,141 165.25,141 C162.25,141 160.25,139 160.25,136 C160.25,133 162.25,131 165.25,131 C162.25,131 160.25,129 160.25,126 C160.25,123 162.25,121 165.25,121 C162.25,121 160.25,119 160.25,116 C160.25,113 162.25,111 165.25,111 C162.25,111 160.25,109 160.25,106 C160.25,103 162.25,101 165.25,101 C162.25,101 160.25,99 160.25,96 C160.25,93 162.25,91 165.25,91 C162.25,91 160.25,89 160.25,86 C160.25,83 162.25,81 165.25,81 C162.25,81 160.25,79 160.25,76 C160.25,73 162.25,71 165.25,71 C162.25,71 160.25,69 160.25,66 C160.25,63 162.25,61 165.25,61 C162.25,61 160.25,59 160.25,56 C160.25,53 162.25,51 165.25,51 C162.25,51 160.25,49 160.25,46 C160.25,43 162.25,41 165.25,41 C162.25,41 160.25,39 160.25,36 C160.25,33 162.25,31 165.25,31 " fill="#FFFFFF" filter="url(#f1w9tr77more0z)" style="stroke: #000000; stroke-width: 2.0;"/><text fill="#000000" font-family="sans-serif" font-size="14" font-weight="bold" lengthAdjust="spacingAndGlyphs" textLength="124" x="341.25" y="48.3128">GitHub Enterprise</text><rect fill="#FEFECE" filter="url(#f1w9tr77more0z)" height="43.9934" style="stroke: #A80036; stroke-width: 1.5;" width="157" x="204" y="57"/><text fill="#000000" font-family="sans-serif" font-size="12" lengthAdjust="spacingAndGlyphs" textLength="138" x="213.5" y="68.6967">Remote Master Upstream</text><line style="stroke: #A80036; stroke-width: 1.5;" x1="205" x2="360" y1="72.9934" y2="72.9934"/><text fill="#000000" font-family="sans-serif" font-size="10" lengthAdjust="spacingAndGlyphs" textLength="145" x="210" y="85.074">The remote upstream repository,</text><text fill="#000000" font-family="sans-serif" font-size="10" lengthAdjust="spacingAndGlyphs" textLength="69" x="210" y="95.074">master branch.</text><rect fill="#FEFECE" filter="url(#f1w9tr77more0z)" height="43.9934" style="stroke: #A80036; stroke-width: 1.5;" width="207" x="179" y="189"/><text fill="#000000" font-family="sans-serif" font-size="12" lengthAdjust="spacingAndGlyphs" textLength="110" x="227.5" y="200.6967">Remote Master Fork</text><line style="stroke: #A80036; stroke-width: 1.5;" x1="180" x2="385" y1="204.9934" y2="204.9934"/><text fill="#000000" font-family="sans-serif" font-size="10" lengthAdjust="spacingAndGlyphs" textLength="195" x="185" y="217.074">Your fork of the remote upstream repository,</text><text fill="#000000" font-family="sans-serif" font-size="10" lengthAdjust="spacingAndGlyphs" textLength="69" x="185" y="227.074">master branch.</text><rect fill="#FEFECE" filter="url(#f1w9tr77more0z)" height="43.9934" style="stroke: #A80036; stroke-width: 1.5;" width="207" x="421" y="189"/><text fill="#000000" font-family="sans-serif" font-size="12" lengthAdjust="spacingAndGlyphs" textLength="112" x="468.5" y="200.6967">Remote Branch Fork</text><line style="stroke: #A80036; stroke-width: 1.5;" x1="422" x2="627" y1="204.9934" y2="204.9934"/><text fill="#000000" font-family="sans-serif" font-size="10" lengthAdjust="spacingAndGlyphs" textLength="195" x="427" y="217.074">Your fork of the remote upstream repository,</text><text fill="#000000" font-family="sans-serif" font-size="10" lengthAdjust="spacingAndGlyphs" textLength="75" x="427" y="227.074">working branch.</text><rect fill="#FEFECE" filter="url(#f1w9tr77more0z)" height="53.9934" style="stroke: #A80036; stroke-width: 1.5;" width="207" x="6" y="323"/><text fill="#000000" font-family="sans-serif" font-size="12" lengthAdjust="spacingAndGlyphs" textLength="97" x="61" y="334.6967">Local Master Fork</text><line style="stroke: #A80036; stroke-width: 1.5;" x1="7" x2="212" y1="338.9934" y2="338.9934"/><text fill="#000000" font-family="sans-serif" font-size="10" lengthAdjust="spacingAndGlyphs" textLength="195" x="12" y="351.074">Your fork of the remote upstream repository,</text><text fill="#000000" font-family="sans-serif" font-size="10" lengthAdjust="spacingAndGlyphs" textLength="183" x="12" y="361.074">cloned to your local machine to work on,</text><text fill="#000000" font-family="sans-serif" font-size="10" lengthAdjust="spacingAndGlyphs" textLength="69" x="12" y="371.074">master branch.</text><rect fill="#FEFECE" filter="url(#f1w9tr77more0z)" height="53.9934" style="stroke: #A80036; stroke-width: 1.5;" width="207" x="421" y="323"/><text fill="#000000" font-family="sans-serif" font-size="12" lengthAdjust="spacingAndGlyphs" textLength="99" x="475" y="334.6967">Local Branch Fork</text><line style="stroke: #A80036; stroke-width: 1.5;" x1="422" x2="627" y1="338.9934" y2="338.9934"/><text fill="#000000" font-family="sans-serif" font-size="10" lengthAdjust="spacingAndGlyphs" textLength="195" x="427" y="351.074">Your fork of the remote upstream repository,</text><text fill="#000000" font-family="sans-serif" font-size="10" lengthAdjust="spacingAndGlyphs" textLength="183" x="427" y="361.074">cloned to your local machine to work on,</text><text fill="#000000" font-family="sans-serif" font-size="10" lengthAdjust="spacingAndGlyphs" textLength="75" x="427" y="371.074">working branch.</text><!--link RemoteMasterUpstream to RemoteMasterFork--><path d="M282.25,101.176 C282.25,123.745 282.25,159.508 282.25,183.826 " fill="none" id="RemoteMasterUpstream-RemoteMasterFork" style="stroke: #0000FF; stroke-width: 1.0;"/><polygon fill="#0000FF" points="282.25,188.833,286.25,179.833,282.25,183.833,278.25,179.833,282.25,188.833" style="stroke: #0000FF; stroke-width: 1.0;"/><text fill="#000000" font-family="sans-serif" font-size="13" lengthAdjust="spacingAndGlyphs" textLength="59" x="304.75" y="142.4986">Fork (first)</text><text fill="#000000" font-family="sans-serif" font-size="13" lengthAdjust="spacingAndGlyphs" textLength="102" x="283.25" y="155.4838">Pull (subsequent)</text><!--link RemoteMasterFork to LocalMasterFork--><path d="M255.598,233.106 C226.271,256.331 178.94,293.8116 146.078,319.8354 " fill="none" id="RemoteMasterFork-LocalMasterFork" style="stroke: #0000FF; stroke-width: 1.0;"/><polygon fill="#0000FF" points="142.145,322.9505,151.6838,320.4986,146.0647,319.8463,146.717,314.2271,142.145,322.9505" style="stroke: #0000FF; stroke-width: 1.0;"/><text fill="#000000" font-family="sans-serif" font-size="13" lengthAdjust="spacingAndGlyphs" textLength="68" x="229.25" y="276.4986">Clone (first)</text><text fill="#000000" font-family="sans-serif" font-size="13" lengthAdjust="spacingAndGlyphs" textLength="102" x="212.25" y="289.4838">Pull (subsequent)</text><!--link RemoteMasterUpstream to LocalMasterFork--><path d="M203.778,99.178 C157.362,114.998 102.3161,142.606 74.25,189 C49.882,229.281 71.6734,284.3834 90.1102,318.2873 " fill="none" id="RemoteMasterUpstream-LocalMasterFork" style="stroke: #808080; stroke-width: 1.0;"/><polygon fill="#808080" points="92.5688,322.7225,91.7039,312.9117,90.1447,318.3494,84.707,316.7903,92.5688,322.7225" style="stroke: #808080; stroke-width: 1.0;"/><text fill="#000000" font-family="sans-serif" font-size="13" lengthAdjust="spacingAndGlyphs" textLength="67" x="83.75" y="208.4986">Fetch latest</text><text fill="#000000" font-family="sans-serif" font-size="13" lengthAdjust="spacingAndGlyphs" textLength="84" x="75.25" y="221.4838">from upstream</text><!--link LocalMasterFork to LocalBranchFork--><path d="M212.634,350 C274.396,350 352.767,350 415.463,350 " fill="none" id="LocalMasterFork-LocalBranchFork" style="stroke: #000000; stroke-width: 1.0;"/><polygon fill="#000000" points="420.713,350,411.713,346,415.713,350,411.713,354,420.713,350" style="stroke: #000000; stroke-width: 1.0;"/><text fill="#000000" font-family="sans-serif" font-size="13" lengthAdjust="spacingAndGlyphs" textLength="72" x="280" y="330.4986">Branch (first)</text><text fill="#000000" font-family="sans-serif" font-size="13" lengthAdjust="spacingAndGlyphs" textLength="118" x="257" y="343.4838">Merge (subsequent)</text><!--link RemoteBranchFork to LocalBranchFork--><path d="M524.25,238.117 C524.25,262.475 524.25,298.6135 524.25,322.9505 " fill="none" id="RemoteBranchFork-LocalBranchFork" style="stroke: #FF0000; stroke-width: 1.0;"/><polygon fill="#FF0000" points="524.25,233.106,520.25,242.106,524.25,238.106,528.25,242.106,524.25,233.106" style="stroke: #FF0000; stroke-width: 1.0;"/><text fill="#000000" font-family="sans-serif" font-size="13" lengthAdjust="spacingAndGlyphs" textLength="30" x="525.25" y="282.9986">Push</text><!--link RemoteMasterUpstream to RemoteBranchFork--><path d="M337.106,103.098 C355.797,111.404 376.66,121.162 395.25,131 C429.256,148.995 466.587,172.266 492.301,188.881 " fill="none" id="RemoteMasterUpstream-RemoteBranchFork" style="stroke: #FF0000; stroke-width: 1.0;"/><polygon fill="#FF0000" points="332.403,101.018,339.0155,108.317,336.9756,103.0407,342.2518,101.0009,332.403,101.018" style="stroke: #FF0000; stroke-width: 1.0;"/><text fill="#000000" font-family="sans-serif" font-size="13" lengthAdjust="spacingAndGlyphs" textLength="75" x="443.25" y="148.9986">Pull Request</text><!--
@startuml
    !pragma horizontalLineBetweenDifferentPackageAllowed
    !pragma verticalLineBetweenDifferentPackageAllowed

    package "GitHub Enterprise" <<Cloud>> {
        object "Remote Master Upstream" as RemoteMasterUpstream {
            The remote upstream repository,\nmaster branch.
        }

        object "Remote Master Fork" as RemoteMasterFork {
            Your fork of the remote upstream repository,\nmaster branch.
        }

        object "Remote Branch Fork" as RemoteBranchFork {
            Your fork of the remote upstream repository,\nworking branch.
        }
    }

    object "Local Master Fork" as LocalMasterFork {
        Your fork of the remote upstream repository,\ncloned to your local machine to work on,\nmaster branch.
    }

    object "Local Branch Fork" as LocalBranchFork {
        Your fork of the remote upstream repository,\ncloned to your local machine to work on,\nworking branch.
    }

    RemoteMasterUpstream -down[#blue]-> RemoteMasterFork: Fork (first)\nPull (subsequent)
    RemoteMasterFork -down[#blue]-> LocalMasterFork: Clone (first)\nPull (subsequent)
    RemoteMasterUpstream -down[#gray]-> LocalMasterFork: Fetch latest\nfrom upstream
    LocalMasterFork -right[#black]-> LocalBranchFork: Branch (first)\nMerge (subsequent)
    LocalBranchFork -up[#red]-> RemoteBranchFork: Push
    RemoteBranchFork -up[#red]-> RemoteMasterUpstream: Pull Request
@enduml

PlantUML version 1.2017.15(Mon Jul 03 16:45:34 UTC 2017)
(GPL source distribution)
Java Runtime: Java(TM) SE Runtime Environment
JVM: Java HotSpot(TM) 64-Bit Server VM
Java Version: 1.8.0_131-b11
Operating System: Linux
OS Version: 3.18.44-20.el7.x86_64
Default Encoding: UTF-8
Language: en
Country: US
--></g></svg>